<?xml version="1.0" standalone="no"?>
<!DOCTYPE svg PUBLIC "-//W3C//DTD SVG 20010904//EN"
 "http://www.w3.org/TR/2001/REC-SVG-20010904/DTD/svg10.dtd">
<svg version="1.0" xmlns="http://www.w3.org/2000/svg"
 width="64.000000pt" height="64.000000pt" viewBox="0 0 64.000000 64.000000"
 preserveAspectRatio="xMidYMid meet">

<g transform="translate(0.000000,64.000000) scale(0.100000,-0.100000)"
fill="#000000" stroke="none">
<path d="M40 600 c-18 -18 -20 -33 -20 -165 0 -142 1 -147 25 -170 20 -21 34
-25 86 -25 52 0 60 -2 55 -16 -3 -9 -6 -18 -6 -20 0 -2 -11 -4 -24 -4 -28 0
-51 -24 -42 -45 4 -12 26 -15 111 -15 63 0 105 -4 105 -10 0 -5 -25 -10 -56
-10 -34 0 -53 -4 -49 -10 3 -5 30 -10 59 -10 58 0 71 -6 55 -27 -7 -7 -32 -13
-60 -13 -27 0 -49 -4 -49 -10 0 -15 81 -12 109 4 22 12 28 11 52 -6 59 -44
159 -20 204 48 23 35 23 113 0 152 -17 28 -17 30 4 59 32 42 26 87 -11 91
l-28 3 0 90 c0 135 12 129 -270 129 -217 0 -231 -1 -250 -20z m498 -102 c3
-107 4 -105 -59 -86 -42 12 -45 18 -28 50 15 28 3 65 -26 84 -23 15 -27 15
-50 0 -30 -20 -41 -56 -25 -86 10 -18 8 -25 -14 -45 -56 -52 -17 -90 83 -82
42 3 58 9 69 25 8 12 23 22 33 22 16 0 19 -8 19 -41 0 -37 -2 -40 -22 -33 -44
14 -99 6 -134 -21 -33 -25 -35 -25 -186 -23 l-153 3 -3 155 c-1 85 0 160 2
167 4 11 55 13 248 11 l243 -3 3 -97z m-110 30 c15 -15 16 -70 1 -85 -13 -13
-4 -33 16 -33 8 0 12 -6 9 -14 -3 -8 -1 -17 5 -21 34 -21 -32 -42 -94 -31 -29
6 -35 11 -35 32 0 17 8 27 25 34 26 10 32 24 15 35 -11 7 -14 78 -3 88 11 11
48 8 61 -5z m62 -138 c0 -5 -4 -10 -10 -10 -5 0 -10 5 -10 10 0 6 5 10 10 10
6 0 10 -4 10 -10z m110 -38 c0 -16 -9 -37 -20 -47 -20 -18 -20 -17 -20 28 0
40 3 47 20 47 15 0 20 -7 20 -28z m-39 -91 c35 -35 39 -44 39 -91 0 -47 -4
-56 -39 -91 -35 -35 -44 -39 -91 -39 -47 0 -56 4 -91 39 -35 35 -39 44 -39 91
0 47 4 56 39 91 35 35 44 39 91 39 47 0 56 -4 91 -39z m-228 -41 c-5 -17 -14
-20 -69 -20 -35 0 -64 2 -64 4 0 28 16 36 75 36 58 0 63 -2 58 -20z m-13 -50
c0 -6 -38 -10 -95 -10 -57 0 -95 4 -95 10 0 6 38 10 95 10 57 0 95 -4 95 -10z"/>
<path d="M169 563 c-1 -4 0 -18 1 -30 1 -15 -8 -27 -29 -37 -25 -13 -30 -23
-33 -58 -2 -34 -7 -43 -20 -42 -11 1 -18 -5 -18 -17 0 -24 19 -25 35 -2 11 14
16 15 44 3 25 -10 38 -10 58 -1 27 12 67 6 58 -10 -4 -5 1 -9 9 -9 9 0 16 8
16 19 0 12 -7 18 -17 17 -14 -1 -19 8 -21 42 -3 35 -8 45 -33 58 -24 12 -30
21 -27 41 2 15 -3 28 -9 30 -7 3 -13 1 -14 -4z m45 -79 c23 -23 21 -81 -4 -94
-18 -10 -20 -8 -20 24 0 23 6 39 18 45 13 9 11 10 -13 6 -16 -3 -37 -1 -45 5
-13 9 -13 11 0 20 22 14 46 12 64 -6z m-60 -30 c10 -4 16 -18 16 -36 0 -23 -4
-29 -16 -24 -9 3 -18 6 -20 6 -2 0 -4 14 -4 30 0 32 1 33 24 24z"/>
<path d="M292 516 c-1 -18 6 -42 14 -52 14 -18 15 -18 5 3 -15 31 -14 53 4 53
8 0 15 7 15 15 0 8 -8 15 -18 15 -14 0 -19 -8 -20 -34z"/>
<path d="M489 533 c15 -31 14 -53 -4 -53 -8 0 -15 -7 -15 -15 0 -8 8 -15 18
-15 24 0 28 59 6 86 -14 18 -15 18 -5 -3z"/>
<path d="M130 330 c0 -5 25 -10 55 -10 30 0 55 5 55 10 0 6 -25 10 -55 10 -30
0 -55 -4 -55 -10z"/>
<path d="M130 290 c0 -5 16 -10 35 -10 19 0 35 5 35 10 0 6 -16 10 -35 10 -19
0 -35 -4 -35 -10z"/>
<path d="M444 273 c-12 -2 -34 -17 -49 -33 -63 -66 -16 -173 75 -173 92 0 139
110 74 173 -30 29 -63 40 -100 33z m91 -38 c19 -18 25 -35 25 -65 0 -30 -6
-47 -25 -65 -18 -19 -35 -25 -65 -25 -56 0 -90 34 -90 90 0 56 34 90 90 90 30
0 47 -6 65 -25z"/>
<path d="M432 214 c-33 -23 -27 -73 11 -94 24 -13 30 -13 55 0 37 21 43 71 10
94 -12 9 -29 16 -38 16 -9 0 -26 -7 -38 -16z m58 -4 c13 -9 13 -11 0 -20 -8
-5 -17 -10 -20 -10 -3 0 -12 5 -20 10 -13 9 -13 11 0 20 8 5 17 10 20 10 3 0
12 -5 20 -10z m-32 -59 c3 -16 -1 -22 -10 -19 -7 3 -15 15 -16 27 -3 16 1 22
10 19 7 -3 15 -15 16 -27z m50 7 c-4 -27 -28 -36 -28 -10 0 20 8 32 22 32 5 0
8 -10 6 -22z"/>
<path d="M31 50 c1 -35 3 -40 8 -20 l7 25 15 -23 c21 -33 29 -27 28 21 -1 37
-2 39 -8 12 l-6 -29 -22 29 -22 30 0 -45z"/>
<path d="M113 74 c-4 -10 1 -22 10 -29 24 -17 21 -28 -4 -20 -15 5 -19 4 -15
-4 9 -14 43 -14 52 0 4 7 -3 19 -15 28 -12 9 -19 20 -15 24 4 4 13 2 21 -4 8
-7 13 -8 13 -1 0 8 -22 22 -36 22 -3 0 -7 -7 -11 -16z"/>
<path d="M170 60 c0 -11 5 -20 10 -20 6 0 10 9 10 20 0 11 -4 20 -10 20 -5 0
-10 -9 -10 -20z"/>
</g>
</svg>
